<?xml version="1.0" encoding="utf-8"?>
<!-- Generator: Adobe Illustrator 18.1.1, SVG Export Plug-In . SVG Version: 6.00 Build 0)  -->
<svg version="1.1" id="Layer_1" xmlns="http://www.w3.org/2000/svg" xmlns:xlink="http://www.w3.org/1999/xlink" x="0px" y="0px"
	 viewBox="0 0 229 94.5" enable-background="new 0 0 229 94.5" xml:space="preserve">
<g>
	<path fill-rule="evenodd" clip-rule="evenodd" fill="#CE090D" d="M56.7,5.6c0,2-1.1,4-3.3,5.9c-2.2,1.9-4.6,2.9-7.2,2.9H31.4
		c-4.5,0-8.1,1.3-11,4c-2.9,2.7-4.3,6.1-4.3,10.4v17.1c0,2.8-1.1,5.2-3.4,7.2c-2.3,2-4.9,3-8,3c-1.8,0-2.7-0.8-2.7-2.4V28.7
		c0-7,2.6-13,7.7-18c5.1-5,11.2-7.5,18.4-7.5H54C55.8,3.2,56.7,4,56.7,5.6z"/>
	<path fill-rule="evenodd" clip-rule="evenodd" fill="#CE090D" d="M133.6,19.5c0,5.2-2.1,9.2-6.4,12c-3.7,2.5-8.5,3.7-14.3,3.7H80.6
		c1,2.9,2.8,5.2,5.4,7c2.6,1.8,5.6,2.7,9,2.7h35.2c1.7,0,2.5,0.8,2.5,2.3c0,2.1-1.1,4-3.3,6c-2.2,1.9-4.6,2.9-7.1,2.9H93.9
		c-7.8,0-14.4-2.5-19.9-7.5c-5.5-5-8.2-11-8.2-18.1v-1.7c0-7,2.7-13,8.2-18c5.5-5,12.1-7.5,19.9-7.5h18.1c6,0,10.9,1.3,14.9,3.9
		C131.3,10.1,133.6,14.2,133.6,19.5L133.6,19.5z M119.6,19.5c0-3.4-2.6-5.1-7.6-5.1H95c-3.4,0-6.4,0.9-9,2.7c-2.6,1.8-4.4,4.1-5.4,7
		h32C117.2,24.1,119.6,22.5,119.6,19.5z"/>
	<path fill-rule="evenodd" clip-rule="evenodd" fill="#CE090D" d="M215.2,47.2c0,2.1-1.1,4-3.3,6c-2.2,1.9-4.6,2.9-7.1,2.9h-29.2
		c-7.8,0-14.4-2.5-19.9-7.5c-5.5-5-8.2-11-8.2-18.1v-1.7c0-7,2.8-13,8.2-18c5.5-5,12.1-7.5,19.9-7.5h34.8c1.8,0,2.7,0.8,2.7,2.3
		c0,2-1.1,4-3.3,5.9c-2.2,1.9-4.6,2.9-7.1,2.9h-25.9c-4.3,0-8,1.4-10.9,4.2c-2.9,2.8-4.4,6.2-4.4,10.1v1.7c0,4,1.5,7.5,4.4,10.3
		c2.9,2.8,6.6,4.2,10.9,4.2h35.8C214.3,44.9,215.2,45.6,215.2,47.2z"/>
	<path fill-rule="evenodd" clip-rule="evenodd" fill="#6F6F6E" d="M84.1,90.5c-2.2,0.5-4.1,0.7-5.9,0.7c-0.7,0-1.3,0-1.9-0.1
		c-0.6-0.1-1.2-0.2-1.9-0.4c-0.7-0.2-1.3-0.4-1.8-0.7c-0.5-0.3-0.9-0.7-1.3-1.3c-0.3-0.5-0.5-1.2-0.5-1.9v-7.6
		c0-0.9,0.2-1.7,0.7-2.4c0.5-0.6,1.1-1.1,2-1.4c0.8-0.3,1.6-0.5,2.4-0.6c0.8-0.1,1.5-0.2,2.4-0.2c2,0,3.8,0.1,5.6,0.4v1.9
		c-0.6-0.1-1.5-0.3-2.7-0.4c-1.2-0.1-2.1-0.2-2.8-0.2c-3.4,0-5.1,1-5.1,2.9v7.6c0,0.5,0.2,1,0.5,1.4c0.3,0.4,0.8,0.7,1.3,0.9
		c0.6,0.2,1.1,0.3,1.6,0.4c0.5,0.1,1.1,0.1,1.8,0.1c1.1,0,2.3-0.2,3.5-0.4v-5.6h-3.8v-1.7h6V90.5z"/>
	<rect x="102" y="73.6" fill-rule="evenodd" clip-rule="evenodd" fill="#6F6F6E" width="2.2" height="17.4"/>
	<path fill-rule="evenodd" clip-rule="evenodd" fill="#6F6F6E" d="M133.1,83.1v4.2c0,0.7-0.1,1.4-0.3,1.9c-0.2,0.5-0.4,0.9-0.7,1.2
		c-0.3,0.3-0.7,0.5-1.2,0.6c-0.5,0.2-1,0.2-1.5,0.3c-0.5,0-1.1,0-1.9,0c-1,0-1.8,0-2.3-0.1c-0.6-0.1-1.1-0.2-1.7-0.5
		c-0.6-0.3-0.9-0.7-1.2-1.2c-0.2-0.6-0.4-1.3-0.4-2.2v-4.2c0-0.8,0.1-1.5,0.3-2c0.2-0.5,0.4-1,0.7-1.3c0.3-0.3,0.7-0.5,1.2-0.7
		c0.5-0.2,1-0.3,1.5-0.3c0.5,0,1.1-0.1,1.9-0.1c0.8,0,1.4,0,1.9,0.1c0.5,0,0.9,0.1,1.5,0.3c0.5,0.2,0.9,0.4,1.2,0.7
		c0.3,0.3,0.5,0.7,0.7,1.3C133,81.6,133.1,82.3,133.1,83.1L133.1,83.1z M130.8,87.5v-4.9c0-1.1-0.2-1.8-0.7-2.1
		c-0.4-0.3-1.3-0.4-2.6-0.4c-1.3,0-2.1,0.1-2.6,0.4c-0.4,0.3-0.7,1-0.7,2.1v4.9c0,0.5,0.1,1,0.2,1.3c0.1,0.3,0.3,0.5,0.6,0.7
		c0.3,0.1,0.6,0.2,1,0.3c0.3,0,0.8,0.1,1.5,0.1c0.6,0,1.1,0,1.5-0.1c0.3,0,0.7-0.1,1-0.3c0.3-0.1,0.5-0.4,0.6-0.7
		C130.7,88.5,130.8,88.1,130.8,87.5z"/>
	<path fill-rule="evenodd" clip-rule="evenodd" fill="#6F6F6E" d="M161.9,82.2v4.9c0,0.7-0.1,1.4-0.3,1.9c-0.2,0.5-0.5,0.9-0.8,1.2
		c-0.3,0.3-0.7,0.5-1.3,0.7c-0.5,0.2-1,0.3-1.5,0.3c-0.5,0-1,0.1-1.7,0.1c-0.9,0-1.6,0-2.1-0.1c-0.5-0.1-1.1-0.3-1.6-0.5
		c-0.5-0.3-1-0.7-1.2-1.3c-0.3-0.6-0.4-1.3-0.4-2.2V73.6h2.2v3.6c0,0.3,0,0.8,0,1.4c0,0.6,0,1.1,0,1.4c0.1-0.4,0.4-0.7,1-1
		c0.6-0.3,1.5-0.4,2.7-0.4C160.2,78.8,161.9,79.9,161.9,82.2L161.9,82.2z M159.6,87.4v-4.7c0-1-0.2-1.7-0.7-1.9
		c-0.5-0.3-1.3-0.4-2.6-0.4c-1.2,0-2,0.2-2.5,0.5c-0.5,0.3-0.7,0.9-0.7,1.9v4.7c0,1,0.2,1.7,0.7,1.9c0.5,0.3,1.3,0.4,2.5,0.4
		c1.2,0,2.1-0.1,2.5-0.4C159.4,89.1,159.6,88.4,159.6,87.4z"/>
	<path fill-rule="evenodd" clip-rule="evenodd" fill="#6F6F6E" d="M189.1,91H187v-1.1c-0.2,0.9-1.4,1.4-3.6,1.4
		c-1.7,0-2.8-0.2-3.4-0.8c-0.6-0.5-1-1.5-1-3.1c0-1.3,0.3-2.3,0.9-2.8c0.6-0.5,1.7-0.8,3.4-0.8h3.6V82c0-0.7-0.2-1.1-0.6-1.3
		c-0.4-0.2-1.2-0.3-2.3-0.3c-1.2,0-2.6,0.1-4.1,0.3V79c1.6-0.2,3.1-0.2,4.4-0.2c2,0,3.3,0.2,3.9,0.7c0.6,0.5,0.9,1.5,0.9,3.1V91
		L189.1,91z M186.9,88.6v-3.3h-3.4c-1,0-1.7,0.1-1.9,0.4c-0.3,0.3-0.4,0.9-0.4,1.8c0,0.8,0.1,1.4,0.4,1.8c0.3,0.3,0.8,0.5,1.7,0.5
		h0.4c0.4,0,0.8,0,1.1,0c0.3,0,0.6-0.1,1-0.1c0.4-0.1,0.6-0.2,0.8-0.4C186.8,89.1,186.9,88.9,186.9,88.6z"/>
	<rect x="207.4" y="73.6" fill-rule="evenodd" clip-rule="evenodd" fill="#6F6F6E" width="2.2" height="17.4"/>
	<path fill-rule="evenodd" clip-rule="evenodd" fill="#6F6F6E" d="M221.9,7.1h0.8c0.7,0,1.3,0,1.3-0.8c0-0.6-0.6-0.8-1.1-0.8h-1V7.1
		L221.9,7.1z M221.1,5h1.9c1.2,0,1.7,0.5,1.7,1.4c0,0.9-0.6,1.3-1.3,1.3l1.4,2.2H224l-1.3-2.1h-0.8v2.1h-0.8V5L221.1,5z M222.7,11
		c-2,0-3.5-1.5-3.5-3.6c0-2,1.5-3.5,3.5-3.5c1.9,0,3.4,1.5,3.4,3.5C226.2,9.4,224.7,11,222.7,11L222.7,11z M222.7,3.2
		c2.3,0,4.2,1.8,4.2,4.2c0,2.4-1.9,4.2-4.2,4.2c-2.3,0-4.2-1.8-4.2-4.2C218.5,5,220.4,3.2,222.7,3.2z"/>
</g>
</svg>
